<!-- icon666.com - MILLIONS vector ICONS FREE --><svg viewBox="-54 0 512 512.00011" xmlns="http://www.w3.org/2000/svg"><path d="m404.363281 202.183594c0-110.609375-88.816406-200.472656-199.019531-202.1601565-111.988281-1.7148435-205.34375 90.1562505-205.34375 202.1601565 0 49.8125 18.027344 95.414062 47.902344 130.652344h-.019532l.558594.640624c.910156 1.066407 1.835938 2.121094 2.769532 3.167969l150.410156 172.109375c3.894531 4.457032 10.871094 4.300782 14.566406-.320312l140.292969-175.597656h-.015625c29.871094-35.238282 47.898437-80.839844 47.898437-130.652344zm0 0" fill="#f36986"></path><path d="m404.363281 202.183594c0-110.609375-88.816406-200.472656-199.019531-202.1601565-11.15625-.1718755-22.121094.6015625-32.832031 2.2148435 97.382812 14.539063 172.082031 98.511719 172.082031 199.945313 0 49.8125-18.027344 95.414062-47.902344 130.652344h.019532l-118.839844 148.742187 23.75 27.175781c3.894531 4.457032 10.871094 4.300782 14.566406-.320312l140.292969-175.597656h-.015625c29.871094-35.238282 47.898437-80.839844 47.898437-130.652344zm0 0" fill="#f33759"></path><path d="m285.625 197.84375c0 46.082031-37.359375 83.441406-83.441406 83.441406-46.085938 0-83.445313-37.359375-83.445313-83.441406 0-46.085938 37.359375-83.445312 83.445313-83.445312 46.082031 0 83.441406 37.359374 83.441406 83.445312zm0 0" fill="#ffd2e3"></path></svg>